<svg xmlns="http://www.w3.org/2000/svg" id="prefix__Group_907" width="67" height="88.319" data-name="Group 907" viewBox="0 0 67 88.319">
    <defs>
        <style>
            .prefix__cls-1{fill:#10192f}
        </style>
    </defs>
    <path id="prefix__Path_1117" d="M11.634 18.8l2.937-.817L22.2 45.412l-2.937.817z" class="prefix__cls-1" data-name="Path 1117" transform="translate(9.772 15.109)"/>
    <path id="prefix__Path_1118" d="M.158 20.311l2.489-1.758 18.284 25.888-2.49 1.759z" class="prefix__cls-1" data-name="Path 1118" transform="translate(.133 15.584)"/>
    <path id="prefix__Path_1119" d="M24.988 44.446l18.283-25.888 2.489 1.758L27.478 46.2z" class="prefix__cls-1" data-name="Path 1119" transform="translate(20.989 15.588)"/>
    <path id="prefix__Path_1120" d="M19.066 45.378l7.6-27.423 2.937.813L22 46.192z" class="prefix__cls-1" data-name="Path 1120" transform="translate(16.015 15.081)"/>
    <path id="prefix__Path_1121" d="M67 33.492a33.594 33.594 0 0 1-.487 5.71 12.182 12.182 0 0 0-22.871-1.4 10.673 10.673 0 0 0-20.283-.015A12.182 12.182 0 0 0 .487 39.2 33.5 33.5 0 1 1 67 33.492z" data-name="Path 1121" transform="translate(0 .008)" style="fill:#d8355c"/>
    <path id="prefix__Path_1122" d="M5.794 31.449h45.682V61.9H5.794z" data-name="Path 1122" transform="translate(4.867 26.416)" style="fill:#d9ccbc"/>
    <path id="prefix__Path_1123" d="M5.794 28.138h45.682v6.091H5.794z" data-name="Path 1123" transform="translate(4.867 23.635)" style="fill:#cdb698"/>
    <path id="prefix__Path_1124" d="M24.859 28.138v13.7l-4.568-4.568-4.568 4.568v-13.7z" class="prefix__cls-1" data-name="Path 1124" transform="translate(13.206 23.635)"/>
    <path id="prefix__Path_1125" d="M23.171 42.207h3.046v3.045h-3.046z" class="prefix__cls-1" data-name="Path 1125" transform="translate(19.463 35.453)"/>
    <path id="prefix__Path_1126" d="M26.483 42.207h3.046v3.045h-3.046z" class="prefix__cls-1" data-name="Path 1126" transform="translate(22.245 35.453)"/>
    <path id="prefix__Path_1127" d="M23.171 44.69h9.136v3.046h-9.136z" class="prefix__cls-1" data-name="Path 1127" transform="translate(19.463 37.538)"/>
    <path id="prefix__Path_1128" d="M10.715 11.13c2-2.7 2.8-5.5 1.79-6.25s-3.457.831-5.458 3.532-2.8 5.5-1.79 6.25 3.456-.831 5.458-3.532z" data-name="Path 1128" transform="translate(4.047 3.942)" style="fill:#ff7956"/>
    <path id="prefix__Path_1129" d="M33.732 28.932a77.8 77.8 0 0 1-.5 8.847c0 .015-.015.015-.015.031a10.673 10.673 0 0 0-20.283-.015c0-.015-.015-.015-.015-.031a77.7 77.7 0 0 1-.5-8.832C12.414 12.958 17.18 0 23.073 0s10.659 12.958 10.659 28.932z" data-name="Path 1129" transform="translate(10.427)" style="fill:#e6e1a0"/>
</svg>
