<svg xmlns="http://www.w3.org/2000/svg" id="prefix__Group_910" width="75.214" height="88.319" data-name="Group 910" viewBox="0 0 75.214 88.319">
    <defs>
        <style>
            .prefix__cls-2{fill:#adc0ed}.prefix__cls-3{fill:#ffbd86}.prefix__cls-4{fill:#fed2a4}.prefix__cls-8{fill:#ec7491}.prefix__cls-9{fill:#ff8e9e}.prefix__cls-10{fill:#313d40}.prefix__cls-11{fill:#10192f}.prefix__cls-12{fill:#394769}.prefix__cls-13{fill:#f4c092}.prefix__cls-14{fill:#fff5f5}.prefix__cls-15{fill:#efe2dd}
        </style>
    </defs>
    <path id="prefix__Path_1130" d="M26.206 19.177a11.377 11.377 0 0 0-11.364 11.364h22.729a11.377 11.377 0 0 0-11.365-11.364z" data-name="Path 1130" transform="translate(12.467 16.108)" style="fill:#d2dff7"/>
    <path id="prefix__Path_1131" d="M26.206 19.177a11.377 11.377 0 0 0-11.364 11.364h6.2v-5.533a1.4 1.4 0 0 1 .235-.78 11.391 11.391 0 0 1 7.187-4.828 11.374 11.374 0 0 0-2.258-.223z" class="prefix__cls-2" data-name="Path 1131" transform="translate(12.467 16.108)"/>
    <path id="prefix__Path_1132" d="M21.662 24.2a1.408 1.408 0 1 0-1.408-1.408 1.408 1.408 0 0 0 1.408 1.408z" class="prefix__cls-2" data-name="Path 1132" transform="translate(17.013 17.959)"/>
    <path id="prefix__Path_1133" d="M21.662 26.64a1.408 1.408 0 1 0-1.408-1.408 1.408 1.408 0 0 0 1.408 1.408z" class="prefix__cls-2" data-name="Path 1133" transform="translate(17.013 20.012)"/>
    <path id="prefix__Path_1134" d="M15.16 10.587a3.387 3.387 0 1 0 3.387 3.387 3.387 3.387 0 0 0-3.387-3.387z" class="prefix__cls-3" data-name="Path 1134" transform="translate(9.889 8.893)"/>
    <path id="prefix__Path_1135" d="M29.972 10.587a3.387 3.387 0 1 0 3.387 3.387 3.387 3.387 0 0 0-3.387-3.387z" class="prefix__cls-3" data-name="Path 1135" transform="translate(22.331 8.893)"/>
    <path id="prefix__Path_1136" d="M31.053 31.726a13.692 13.692 0 1 0-3.819.543 13.628 13.628 0 0 0 3.819-.543z" class="prefix__cls-4" data-name="Path 1136" transform="translate(11.434 4.221)"/>
    <path id="prefix__Path_1137" d="M18.128 18.647A13.625 13.625 0 0 1 29.492 5.212a13.622 13.622 0 1 0 0 26.87 13.625 13.625 0 0 1-11.364-13.435z" class="prefix__cls-3" data-name="Path 1137" transform="translate(11.434 4.221)"/>
    <path id="prefix__Path_1138" d="M30.5 15.286a5.919 5.919 0 0 0 9.751 0 13.626 13.626 0 0 0-26.408 0 14.83 14.83 0 0 0 16.657 0z" data-name="Path 1138" transform="translate(11.631 4.221)" style="fill:#e37858"/>
    <path id="prefix__Path_1139" d="M29.309 5.212a13.636 13.636 0 0 0-15.462 10.074 14.792 14.792 0 0 0 4.169 1.964A13.629 13.629 0 0 1 29.309 5.212z" data-name="Path 1139" transform="translate(11.631 4.221)" style="fill:#dd6642"/>
    <path id="prefix__Path_1140" d="M37.44 0H16.663a2.816 2.816 0 0 0-2.816 2.816v16.691a33.06 33.06 0 0 1 26.409 0V2.816A2.816 2.816 0 0 0 37.44 0z" data-name="Path 1140" transform="translate(11.631)" style="fill:#d8355c"/>
    <path id="prefix__Path_1141" d="M21.4 0h-4.739a2.816 2.816 0 0 0-2.816 2.816v16.691a33.058 33.058 0 0 1 5.085-1.739V5.96A8.429 8.429 0 0 1 21.4 0z" class="prefix__cls-8" data-name="Path 1141" transform="translate(11.629)"/>
    <path id="prefix__Path_1142" d="M17.253 2.475a1.408 1.408 0 0 0-1.408 1.408v7.509a1.408 1.408 0 1 0 2.816 0V3.883a1.408 1.408 0 0 0-1.408-1.408z" class="prefix__cls-8" data-name="Path 1142" transform="translate(13.309 2.079)"/>
    <path id="prefix__Path_1143" d="M21.662 2.475a1.408 1.408 0 0 0-1.408 1.408v7.509a1.408 1.408 0 1 0 2.816 0V3.883a1.408 1.408 0 0 0-1.408-1.408z" class="prefix__cls-8" data-name="Path 1143" transform="translate(17.013 2.079)"/>
    <path id="prefix__Path_1144" d="M26.075 2.475a1.408 1.408 0 0 0-1.408 1.408v7.509a1.408 1.408 0 1 0 2.816 0V3.883a1.408 1.408 0 0 0-1.408-1.408z" class="prefix__cls-8" data-name="Path 1144" transform="translate(20.72 2.079)"/>
    <path id="prefix__Path_1145" d="M20.421 15.589a1.934 1.934 0 0 1-2.121 1.676 1.934 1.934 0 0 1-2.1-1.689 1.934 1.934 0 0 1 2.114-1.676 1.934 1.934 0 0 1 2.107 1.689z" class="prefix__cls-9" data-name="Path 1145" transform="translate(13.605 11.676)"/>
    <path id="prefix__Path_1146" d="M23.538 15.6a1.934 1.934 0 0 0 2.107 1.689 1.934 1.934 0 0 0 2.117-1.675 1.934 1.934 0 0 0-2.107-1.688 1.934 1.934 0 0 0-2.117 1.674z" class="prefix__cls-9" data-name="Path 1146" transform="translate(19.771 11.695)"/>
    <path id="prefix__Path_1147" d="M18.077 12.907a.7.7 0 0 0-.7.7v.939a.7.7 0 0 0 1.408 0v-.939a.7.7 0 0 0-.708-.7z" class="prefix__cls-10" data-name="Path 1147" transform="translate(14.593 10.842)"/>
    <path id="prefix__Path_1148" d="M24.605 12.907a.7.7 0 0 0-.7.7v.939a.7.7 0 1 0 1.408 0v-.939a.7.7 0 0 0-.708-.7z" class="prefix__cls-10" data-name="Path 1148" transform="translate(20.076 10.842)"/>
    <path id="prefix__Path_1149" d="M23.861 14.4a.7.7 0 0 0-.939.331.967.967 0 0 1-1.733 0 .7.7 0 0 0-1.27.607 2.375 2.375 0 0 0 4.274 0 .7.7 0 0 0-.332-.938z" class="prefix__cls-10" data-name="Path 1149" transform="translate(16.673 12.04)"/>
    <path id="prefix__Path_1150" d="M4.41 43.4h18.429v8.3H4.41z" class="prefix__cls-11" data-name="Path 1150" transform="translate(3.704 36.458)"/>
    <path id="prefix__Path_1151" d="M12.689 43.4h3.2v8.3h-3.2z" class="prefix__cls-12" data-name="Path 1151" transform="translate(10.659 36.458)"/>
    <path id="prefix__Path_1152" d="M.01 37.131a8.7 8.7 0 0 0 1.19 4.825l9.771 16.615c1.2 2.044.533 5.866.5 8.241l-.085 6.378 13.089-.022-.013-6.446a7.959 7.959 0 0 1 .5-2.778c.363-.976.726-1.95 1.065-2.931a8.716 8.716 0 0 0-.977-7.663 39.63 39.63 0 0 1-3.45-6.41L15.715 33.1a3.779 3.779 0 0 0-4.427-2.179L10.221 12.5a4.571 4.571 0 0 0-4.69-4.339 4.521 4.521 0 0 0-4.341 4.3l-.233 4.874z" class="prefix__cls-4" data-name="Path 1152" transform="translate(0 6.853)"/>
    <path id="prefix__Path_1153" d="M24.637 58.354a8.7 8.7 0 0 1-.476 2.657c-.338.983-.7 1.955-1.064 2.931a7.974 7.974 0 0 0-.5 2.779l.013 6.447-13.087.022v-.006l8.9-.016-.013-6.447a7.958 7.958 0 0 1 .5-2.779c.362-.976.726-1.949 1.064-2.931a8.7 8.7 0 0 0 .476-2.657c.093-4.3-2.884-7.5-4.63-11.168-1.811-3.8-3.127-7.815-4.773-11.688a3.773 3.773 0 0 0-2.4-2.144 3.092 3.092 0 0 1-2.219-2.734L5.135 12.5a4.627 4.627 0 0 0-2.913-4.041 4.565 4.565 0 0 1 1.446-.3A4.571 4.571 0 0 1 8.359 12.5l1.067 18.425a3.777 3.777 0 0 1 4.426 2.175l5.882 13.84q.712 1.679 1.577 3.284t1.874 3.126a8.757 8.757 0 0 1 1.452 5.004z" class="prefix__cls-3" data-name="Path 1153" transform="translate(1.866 6.853)"/>
    <path id="prefix__Path_1154" d="M20.494 56.373a7.948 7.948 0 0 1 .5-2.779c.363-.976.726-1.95 1.064-2.931A8.714 8.714 0 0 0 21.079 43a39.707 39.707 0 0 1-2.148-3.646l-2.289-5.083-4.9-11.517c-.042-.1-.09-.2-.139-.289l-.023-.044a3.855 3.855 0 0 0-5.1-1.517c-.061.032-.121.066-.179.1A3.413 3.413 0 0 0 5 25.256l6.578 15.5 1.531 3.425a13.966 13.966 0 0 1 1.1 7.494l-.682 11.063 6.929.076z" class="prefix__cls-13" data-name="Path 1154" transform="translate(3.964 17.2)"/>
    <path id="prefix__Path_1155" d="M22.839 46.191H4.41l.029-4.391a1.541 1.541 0 0 1 1.551-1.53l15.318.1a1.541 1.541 0 0 1 1.53 1.551z" class="prefix__cls-14" data-name="Path 1155" transform="translate(3.704 33.828)"/>
    <path id="prefix__Path_1156" d="M16.565 41.88v4.265H13.38V41.88a1.516 1.516 0 0 0-1.5-1.55h3.157a1.54 1.54 0 0 1 1.528 1.55z" class="prefix__cls-15" data-name="Path 1156" transform="translate(9.978 33.876)"/>
    <path id="prefix__Path_1157" d="M26.463 51.788v-8.174l18.4-.124v8.3z" data-name="Path 1157" transform="translate(22.228 36.531)" style="fill:#e63950"/>
    <path id="prefix__Path_1158" d="M26.463 51.788v-8.174l18.4-.124v8.3z" class="prefix__cls-11" data-name="Path 1158" transform="translate(22.228 36.531)"/>
    <path id="prefix__Path_1159" d="M34.735 43.5h3.185v8.278h-3.185z" class="prefix__cls-12" data-name="Path 1159" transform="translate(29.177 36.54)"/>
    <path id="prefix__Path_1160" d="M52.966 37.131a8.693 8.693 0 0 1-1.191 4.825L42 58.57c-1.2 2.044-.532 5.866-.5 8.241l.086 6.378-13.086-.021.013-6.446a7.959 7.959 0 0 0-.5-2.779c-.363-.976-.726-1.95-1.065-2.931a8.718 8.718 0 0 1 .976-7.663 39.578 39.578 0 0 0 3.451-6.41L37.261 33.1a3.779 3.779 0 0 1 4.426-2.179L42.754 12.5a4.571 4.571 0 0 1 4.691-4.339 4.521 4.521 0 0 1 4.341 4.3l.233 4.872z" class="prefix__cls-4" data-name="Path 1160" transform="translate(22.238 6.853)"/>
    <path id="prefix__Path_1161" d="M28.514 56.373a7.948 7.948 0 0 0-.5-2.779c-.363-.976-.726-1.95-1.064-2.931A8.71 8.71 0 0 1 27.929 43a39.747 39.747 0 0 0 2.148-3.646l2.289-5.083 4.9-11.517c.042-.1.09-.2.139-.289l.023-.044a3.855 3.855 0 0 1 5.1-1.517c.061.032.121.066.179.1a3.413 3.413 0 0 1 1.305 4.251l-6.578 15.5-1.534 3.431a13.968 13.968 0 0 0-1.1 7.494l.682 10.941-6.929.076z" class="prefix__cls-13" data-name="Path 1161" transform="translate(22.238 17.2)"/>
    <path id="prefix__Path_1162" d="M46.665 41.955L36.894 58.57c-1.2 2.044-.533 5.866-.5 8.241l.086 6.38-3.63-.007-.087-6.374c-.032-2.375-.7-6.2.5-8.241l9.772-16.614a8.687 8.687 0 0 0 1.19-4.825l-.948-19.8-.233-4.872a4.517 4.517 0 0 0-2.69-3.917 4.369 4.369 0 0 1 1.981-.383 4.519 4.519 0 0 1 4.34 4.3l.233 4.872.947 19.8a8.686 8.686 0 0 1-1.19 4.825z" class="prefix__cls-3" data-name="Path 1162" transform="translate(27.34 6.853)"/>
    <path id="prefix__Path_1163" d="M26.473 46.315l18.37-.124V41.8a1.541 1.541 0 0 0-1.551-1.53l-15.318.1a1.541 1.541 0 0 0-1.53 1.551z" class="prefix__cls-14" data-name="Path 1163" transform="translate(22.212 33.828)"/>
    <path id="prefix__Path_1164" d="M38.6 41.824v4.387h-3.188v-4.387a1.516 1.516 0 0 0-1.5-1.551h3.156a1.539 1.539 0 0 1 1.532 1.551z" class="prefix__cls-15" data-name="Path 1164" transform="translate(28.484 33.828)"/>
</svg>
